<?xml version="1.0" encoding="UTF-8"?>
<svg xmlns="http://www.w3.org/2000/svg" width="250px" height="250px" viewBox="12.5 12.5 100 100">
	<title>NYCS Bullet, Standard Set - 3 Local</title>
	<circle cx="62.5" cy="62.5" r="50" fill="#EE352E"/>
	<path d="M79.9,72.6c-0.067-6.867-3.3-11.067-9.7-12.6l0.1,0.2l-0.1,0.2c5.6-1.533,8.4-5.133,8.4-10.8c0-4.333-1.633-7.767-4.9-10.3c-2.933-2.2-6.633-3.3-11.1-3.3c-10.133,0-16.067,5.067-17.8,15.2l10.3,2.2c0.533-5.8,2.8-8.7,6.8-8.7c4.267,0,6.4,2.167,6.4,6.5c0,3.6-2.1,5.4-6.3,5.4h-3.9v8.2H62c4.733,0,7.1,2.4,7.1,7.2c0,2.267-0.65,4.083-1.95,5.45c-1.3,1.367-3.083,2.05-5.35,2.05c-5.333,0-8-3-8-9h-9.9c0,11.8,5.867,17.7,17.6,17.7c5.2,0,9.5-1.267,12.9-3.8C78.067,81.533,79.9,77.6,79.9,72.6z" fill="#FFF"/>
</svg>
