<?xml version="1.0" encoding="UTF-8"?>
<svg xmlns="http://www.w3.org/2000/svg" width="250px" height="250px" viewBox="0 0 125 125">
	<title>NYCS Bullet, Standard Set - 6 Express</title>
	<path d="M62.5,2.5L122.5,62.5L62.5,122.5L2.5,62.5Z" fill="#00933C"/>
	<path d="M79.4,71.5c0-5-1.333-9.033-4-12.1c-2.667-3.067-6.333-4.6-11-4.6c-4.533,0-7.833,1.533-9.9,4.6c0.133-3.8,0.767-6.967,1.9-9.5c1.533-3.467,3.8-5.2,6.8-5.2c3.467,0,5.367,1.933,5.7,5.8l10-1.3C77.5,40.4,72.3,36,63.3,36c-6.133,0-10.867,2.567-14.2,7.7c-3.133,4.867-4.7,11.4-4.7,19.6c0,16.6,6.033,24.9,18.1,24.9c5,0,9.067-1.583,12.2-4.75C77.833,80.283,79.4,76.3,79.4,71.5zM69.5,71.5c0,5.333-2.333,8-7,8c-4.667,0-7-2.667-7-8s2.333-8,7-8C67.167,63.5,69.5,66.167,69.5,71.5z" fill="#FFF"/>
</svg>
