<?xml version="1.0" encoding="UTF-8"?>
<svg xmlns="http://www.w3.org/2000/svg" width="250px" height="250px" viewBox="0 0 125 125">
	<title>NYCS Bullet, Standard Set - C Local</title>
	<circle cx="62.5" cy="62.5" r="50" fill="#0039A6"/>
	<path d="M84.3,73.3l-9-4.1c-2.133,6.733-6.1,10.1-11.9,10.1c-4.533,0-8.033-1.8-10.5-5.4c-2.2-3.133-3.3-7.067-3.3-11.8s1.1-8.7,3.3-11.9c2.467-3.6,5.967-5.4,10.5-5.4c2.8,0,5.2,0.867,7.2,2.6c2,1.733,3.2,4,3.6,6.8l9.5-2.4c-1.2-5.267-3.583-9.267-7.15-12c-3.567-2.733-7.95-4.1-13.15-4.1c-7.333,0-13.233,2.633-17.7,7.9c-4.267,4.933-6.4,11.1-6.4,18.5c0,7.533,2,13.7,6,18.5c4.4,5.267,10.433,7.9,18.1,7.9C73.267,88.5,80.233,83.433,84.3,73.3z" fill="#FFF"/>
</svg>
