<?xml version="1.0" encoding="UTF-8"?>
<svg xmlns="http://www.w3.org/2000/svg" width="250px" height="250px" viewBox="0 0 125 125">
	<title>NYCS Bullet, Standard Set - R Local</title>
	<circle cx="62.5" cy="62.5" r="50" fill="#FCCC0A"/>
	<path d="M85.2,87.3L74,67.1c2.4-1,4.267-2.167,5.6-3.5c2.8-2.8,4.2-6.6,4.2-11.4c0-4.533-1.533-8.217-4.6-11.05c-3.067-2.833-7.233-4.25-12.5-4.25h-21v50.4h9.9V68.9h8.5l9.7,18.4H85.2zM73.5,52.9c0,2.2-0.733,3.967-2.2,5.3c-1.467,1.333-3.4,2-5.8,2h-9.9V45.7h8.5C70.367,45.7,73.5,48.1,73.5,52.9z"/>
</svg>
