<?xml version="1.0" encoding="UTF-8"?>
<svg xmlns="http://www.w3.org/2000/svg" width="250px" height="250px" viewBox="12.5 12.5 100 100">
	<title>NYCS Bullet, Standard Set - Shuttles</title>
	<circle cx="62.5" cy="62.5" r="50" fill="#808183"/>
	<path d="M84,71.9c0-4.4-1.5-7.767-4.5-10.1c-2.2-1.733-5.567-3.133-10.1-4.2l-6.1-1.4c-3.6-0.8-5.7-1.333-6.3-1.6c-2.467-1-3.7-2.5-3.7-4.5c0-1.6,0.85-2.883,2.55-3.85c1.7-0.967,3.883-1.45,6.55-1.45c6.133,0,10.5,2.467,13.1,7.4l8.2-6.2c-5.133-6.867-12.2-10.3-21.2-10.3c-5.133,0-9.533,1.267-13.2,3.8c-4.2,2.933-6.3,6.933-6.3,12c0,4.2,1.533,7.467,4.6,9.8c2.2,1.733,5.7,3.167,10.5,4.3l5.6,1.3c3.733,0.867,6.233,1.633,7.5,2.3c1.667,0.933,2.5,2.267,2.5,4c0,2.067-1.133,3.667-3.4,4.8c-1.867,0.867-4.167,1.3-6.9,1.3c-6.533,0-11.533-2.533-15-7.6l-8.3,6c2.4,3.467,5.567,6.133,9.5,8c3.933,1.867,8.067,2.8,12.4,2.8c5.933,0,10.9-1.233,14.9-3.7C81.633,81.867,84,77.567,84,71.9z" fill="#FFF"/>
</svg>
