<?xml version="1.0" encoding="UTF-8"?>
<svg xmlns="http://www.w3.org/2000/svg" width="250px" height="250px" viewBox="12.5 12.5 112.5 112.5">
	<title>NYCS Bullet, Standard Set - Franklin Avenue Shuttle</title>
	<circle cx="62.5" cy="62.5" r="50" fill="#808183"/>
	<path d="M66.9,84.8c-4,2.47-8.97,3.7-14.9,3.7c-4.33,0-8.47-0.93-12.4-2.8c-3.93-1.87-7.1-4.53-9.5-8l8.3-6c3.47,5.07,8.47,7.6,15,7.6c2.73,0,5.03-0.43,6.9-1.3c2.27-1.13,3.4-2.73,3.4-4.8c0-1.73-0.83-3.07-2.5-4c-1.27-0.67-3.77-1.43-7.5-2.3l-5.6-1.3c-4.8-1.13-8.3-2.57-10.5-4.3c-3.07-2.33-4.6-5.6-4.6-9.8c0-5.07,2.1-9.07,6.3-12c3.67-2.53,8.07-3.8,13.2-3.8c9,0,16.07,3.43,21.2,10.3l-8.2,6.2c-2.6-4.93-6.97-7.4-13.1-7.4c-2.67,0-4.85,0.48-6.55,1.45c-1.7,0.97-2.55,2.25-2.55,3.85c0,2,1.23,3.5,3.7,4.5c0.6,0.27,2.7,0.8,6.3,1.6l6.1,1.4c4.53,1.07,7.9,2.47,10.1,4.2c3,2.33,4.5,5.7,4.5,10.1C74,77.57,71.63,81.87,66.9,84.8zM95.75,41.5v-4.6h-16.6v25.2h4.95l-0.05-10.5H94.3v-4.4H84.05v-5.7H95.75z" fill="#FFF"/>
</svg>
