<?xml version="1.0" encoding="UTF-8"?>
<svg xmlns="http://www.w3.org/2000/svg" width="250px" height="250px" viewBox="12.5 12.5 112.5 112.5">
	<title>NYCS Bullet, Standard Set - Staten Island Railway</title>
	<circle cx="62.5" cy="62.5" r="50" fill="#0078C6"/>
	<path d="M97.2,77.9l-7-12.7c1.5-0.6,2.7-1.4,3.5-2.2c1.8-1.8,2.6-4.1,2.6-7.1c0-2.8-1-5.2-2.9-6.9c-1.9-1.8-4.5-2.7-7.8-2.7H72.4v31.6h6.2V66.4H84L90,77.9H97.2zM89.8,56.3c0,1.4-0.5,2.5-1.4,3.3c-0.9,0.8-2.1,1.3-3.6,1.3h-6.2v-9.1H84C87.9,51.8,89.8,53.3,89.8,56.3zM65.6,77.9h-6.2V46.3h6.2V77.9zM50.2,76.3c-2.5,1.5-5.6,2.3-9.3,2.3c-2.7,0-5.3-0.6-7.8-1.8s-4.5-2.8-6-5l5.2-3.8c2.2,3.2,5.3,4.8,9.4,4.8c1.7,0,3.2-0.3,4.3-0.8c1.4-0.7,2.1-1.7,2.1-3c0-1.1-0.5-1.9-1.6-2.5c-0.8-0.4-2.4-0.9-4.7-1.4l-3.5-0.8c-3-0.7-5.2-1.6-6.6-2.7c-1.9-1.5-2.9-3.5-2.9-6.1c0-3.2,1.3-5.7,4-7.5c2.3-1.6,5.1-2.4,8.3-2.4c5.6,0,10.1,2.2,13.3,6.5l-5.1,3.9c-1.6-3.1-4.4-4.6-8.2-4.6c-1.7,0-3,0.3-4.1,0.9c-1.1,0.6-1.6,1.4-1.6,2.4c0,1.3,0.8,2.2,2.3,2.8c0.4,0.2,1.7,0.5,4,1l3.8,0.9c2.8,0.7,5,1.5,6.3,2.6c1.9,1.5,2.8,3.6,2.8,6.3C54.7,71.8,53.2,74.5,50.2,76.3z" fill="#FFF"/>
</svg>
